<svg xmlns="http://www.w3.org/2000/svg" xmlns:xlink="http://www.w3.org/1999/xlink" x="0" y="0" version="1.1" viewBox="0 0 120 120" xml:space="preserve" style="enable-background:new 0 0 120 120"><style type="text/css">.st0{display:none}.st2{display:inline}.st3{fill:#fff}.st4,.st5,.st6{display:inline;fill:#fc3}.st5,.st6{fill:none;stroke:#de1f12;stroke-miterlimit:10}.st6{stroke:#e5e5e5}.st12{fill:#393b42}.st16,.st18{fill:none;stroke:#393b42;stroke-linecap:round;stroke-miterlimit:10}.st18{stroke-width:.5}</style><g id="white_circles" class="st0"><g class="st2"><circle cx="60.3" cy="60" r="60" class="st3"/></g></g><g id="background__x28_test_transparency_x29_" class="st0"><rect width="913.5" height="269.3" x="-315.1" y="-14.8" class="st4"/></g><g id="guides_1_" class="st0"><path d="M60.3,109.9c-26.3,0-47.7-21.4-47.7-47.7S34,14.4,60.3,14.4S108,35.8,108,62.1S86.6,109.9,60.3,109.9z" class="st5"/><path d="M60.3,103.9c-23,0-41.8-18.7-41.8-41.8s18.7-41.8,41.8-41.8s41.8,18.7,41.8,41.8S83.3,103.9,60.3,103.9z" class="st5"/><path d="M60.3,97.9c-19.7,0-35.8-16.1-35.8-35.8s16.1-35.8,35.8-35.8s35.8,16.1,35.8,35.8S80.1,97.9,60.3,97.9z" class="st5"/><line x1="61" x2="61" y1="-5.3" y2="125" class="st6"/></g><g id="icons"><g><circle cx="61" cy="24" r="8" class="st16"/><circle cx="61" cy="24" r="3.2" class="st12"/><g><path d="M18.2,82.4l7.4-26c0.3-1.1,0.8-1.1,1.1,0l12.8,44.9c0.3,1.1,0.5,1.9,0.5,1.9c0,0,0.2-0.9,0.5-2l17.3-70" class="st18"/></g><g><path d="M101.9,83.4l-7.6-26.7c-0.3-1.1-0.8-1.1-1.1,0l-12.8,44.9c-0.3,1.1-0.7,1-1,0L63.9,31.4" class="st18"/></g></g></g></svg>