<svg xmlns="http://www.w3.org/2000/svg" xmlns:xlink="http://www.w3.org/1999/xlink" style="enable-background:new 0 0 120 120" x="0" y="0" version="1.1" viewBox="0 0 120 120" xml:space="preserve"><style type="text/css">.st0{display:none}.st2{display:inline}.st3{fill:#fff}.st4,.st5,.st6{display:inline;fill:#fc3}.st5,.st6{fill:none;stroke:#de1f12;stroke-miterlimit:10}.st6{stroke:#e5e5e5}.st12{fill:#393b42}.st16,.st17,.st18{fill:none;stroke:#393b42;stroke-linecap:round;stroke-miterlimit:10}.st17{stroke-width:.75}.st18{stroke-width:.5}</style><g id="white_circles" class="st0"><g class="st2"><circle cx="60" cy="59.8" r="60" class="st3"/></g></g><g id="background__x28_test_transparency_x29_" class="st0"><rect width="913.5" height="269.3" x="-181.8" y="-14.8" class="st4"/></g><g id="guides_1_" class="st0"><path d="M60,107.6c-26.3,0-47.7-21.4-47.7-47.7S33.7,12.1,60,12.1s47.7,21.4,47.7,47.7S86.3,107.6,60,107.6z" class="st5"/><path d="M60,101.6c-23,0-41.8-18.7-41.8-41.8S37,18.1,60,18.1s41.8,18.7,41.8,41.8S83,101.6,60,101.6z" class="st5"/><path d="M60,95.6c-19.7,0-35.8-16.1-35.8-35.8S40.3,24,60,24s35.8,16.1,35.8,35.8S79.7,95.6,60,95.6z" class="st5"/><line x1="60" x2="60" y1="-4.5" y2="125.9" class="st6"/></g><g id="icons"><g><line x1="61.8" x2="46.6" y1="87.4" y2="56" class="st18"/><line x1="89.4" x2="67.7" y1="61.9" y2="88.7" class="st18"/><line x1="54.6" x2="87.8" y1="47.1" y2="56.9" class="st18"/><line x1="71.9" x2="68.1" y1="106.1" y2="99.5" class="st18"/><line x1="59.3" x2="54.6" y1="99.8" y2="105.5" class="st18"/><line x1="101.8" x2="97.4" y1="45.2" y2="51.1" class="st18"/><line x1="101.3" x2="107.6" y1="60.4" y2="61.9" class="st18"/><line x1="24.7" x2="16.5" y1="41.3" y2="40.1" class="st18"/><line x1="34.7" x2="36.7" y1="19.4" y2="27.1" class="st18"/><ellipse cx="94.8" cy="57.5" class="st17" rx="7" ry="6.9"/><ellipse cx="63.5" cy="94.3" class="st17" rx="7" ry="6.9"/></g><g><g><ellipse cx="40.1" cy="42.3" class="st16" rx="15.4" ry="15.1"/><g><path d="M46.2,44.9c-1.1,0-2.7,0.6-3.6,1.2c0,0-0.9,0.8-2.5,0.8c-1.6,0-2.5-0.8-2.5-0.8c-0.9-0.7-2.5-1.2-3.6-1.2 h-1c-1.1,0-2,0.5-2,1.1s0.7,1.7,1.5,2.5c0,0,3.1,2.8,7.7,2.6c5-0.2,7.6-2.6,7.6-2.6c0.8-0.7,1.5-1.9,1.5-2.5s-0.9-1.1-2-1.1 H46.2z" class="st12"/></g></g><ellipse cx="40.1" cy="39.4" class="st12" rx="4.9" ry="6"/></g></g></svg>