<svg xmlns="http://www.w3.org/2000/svg" xmlns:xlink="http://www.w3.org/1999/xlink" style="enable-background:new 0 0 120 120" x="0" y="0" version="1.1" viewBox="0 0 120 120" xml:space="preserve"><style type="text/css">.st0{display:none}.st2{display:inline}.st3{fill:#fff}.st4,.st5{display:inline}.st4{fill:#fc3}.st5{stroke:#de1f12}.st16,.st17,.st18,.st19,.st5,.st6{fill:none;stroke-miterlimit:10}.st6{display:inline;stroke:#e5e5e5}.st16,.st17,.st18,.st19{stroke:#393b42;stroke-linecap:round}.st17{stroke-width:.75}.st18{stroke-width:.5}.st19{stroke-width:2}</style><g id="white_circles" class="st0"><g class="st2"><circle cx="60.2" cy="60.1" r="60" class="st3"/></g></g><g id="background__x28_test_transparency_x29_" class="st0"><rect width="913.5" height="269.3" x="-48.6" y="-14.8" class="st4"/></g><g id="guides_1_" class="st0"><path d="M60.2,107.9c-26.3,0-47.7-21.4-47.7-47.7s21.4-47.7,47.7-47.7s47.7,21.4,47.7,47.7S86.5,107.9,60.2,107.9z" class="st5"/><path d="M60.2,101.9c-23,0-41.8-18.7-41.8-41.8s18.7-41.8,41.8-41.8S102,37.1,102,60.1S83.2,101.9,60.2,101.9z" class="st5"/><path d="M60.2,95.9c-19.7,0-35.8-16.1-35.8-35.8s16.1-35.8,35.8-35.8S96,40.4,96,60.1S79.9,95.9,60.2,95.9z" class="st5"/><line x1="60.2" x2="60.2" y1="-3.7" y2="126.6" class="st6"/></g><g id="icons"><g><g><line x1="38.6" x2="36.2" y1="35.1" y2="49.5" class="st19"/><line x1="43.4" x2="41" y1="35.1" y2="49.5" class="st19"/><line x1="45.3" x2="34.9" y1="40.1" y2="40.1" class="st19"/><line x1="44.6" x2="34.2" y1="44.4" y2="44.4" class="st19"/></g><g><line x1="62" x2="46.8" y1="87.7" y2="56.2" class="st18"/><line x1="89.5" x2="67.9" y1="62.1" y2="89" class="st18"/><line x1="54.8" x2="88" y1="47.4" y2="57.1" class="st18"/><line x1="72" x2="68.3" y1="106.4" y2="99.8" class="st18"/><line x1="59.5" x2="54.8" y1="100.1" y2="105.8" class="st18"/><line x1="102" x2="97.6" y1="45.4" y2="51.4" class="st18"/><line x1="101.5" x2="107.8" y1="60.7" y2="62.1" class="st18"/><line x1="24.9" x2="16.7" y1="41.5" y2="40.4" class="st18"/><line x1="34.9" x2="36.9" y1="19.3" y2="27.4" class="st18"/></g><g><ellipse cx="40.3" cy="42.5" class="st16" rx="15.4" ry="15.1"/></g><ellipse cx="95" cy="57.8" class="st17" rx="7" ry="6.9"/><ellipse cx="63.7" cy="94.6" class="st17" rx="7" ry="6.9"/></g></g></svg>