<svg xmlns="http://www.w3.org/2000/svg" xmlns:xlink="http://www.w3.org/1999/xlink" style="enable-background:new 0 0 120 120" x="0" y="0" version="1.1" viewBox="0 0 120 120" xml:space="preserve"><style type="text/css">.st0{display:none}.st1{fill:#fff}.st1,.st4,.st5{display:inline}.st4{fill:#fc3}.st5{stroke:#de1f12;stroke-miterlimit:10}.st5,.st6{fill:none}.st6,.st7,.st8,.st9{display:inline;stroke:#e5e5e5;stroke-miterlimit:10}.st7{fill:none;stroke-width:.75}.st8{fill:#a7a7aa}.st9{fill:none;stroke-width:1.5}.st10{stroke-width:.75}.st10,.st11{fill:none;stroke:#25262e;stroke-miterlimit:10}.st12{fill:#393b42}.st13{stroke-width:.5}.st13,.st14,.st16,.st18{fill:none;stroke:#393b42;stroke-miterlimit:10}.st14{stroke-width:.75}.st16,.st18{stroke-linecap:round}.st18{stroke-width:.5}</style><g id="white_circles" class="st0"><circle cx="60.3" cy="60.5" r="60" class="st1"/></g><g id="background__x28_test_transparency_x29_" class="st0"><rect width="913.5" height="269.3" x="-584.8" y="-14.8" class="st4"/></g><g id="guides_1_" class="st0"><line x1="118.1" x2="270" y1="48.3" y2="48.3" class="st8"/><line x1="117.8" x2="269.7" y1="73.2" y2="73.2" class="st8"/><path d="M60.3,108.2c-26.3,0-47.7-21.4-47.7-47.7S34,12.7,60.3,12.7s47.7,21.4,47.7,47.7S86.7,108.2,60.3,108.2z" class="st5"/><path d="M60.3,102.3c-23,0-41.8-18.7-41.8-41.8s18.7-41.8,41.8-41.8s41.8,18.7,41.8,41.8S83.4,102.3,60.3,102.3z" class="st5"/><path d="M60.3,96.3c-19.7,0-35.8-16.1-35.8-35.8s16.1-35.8,35.8-35.8s35.8,16.1,35.8,35.8S80.1,96.3,60.3,96.3z" class="st5"/><line x1="59.6" x2="59.6" y1="-4.3" y2="126" class="st6"/><line x1="-3" x2="126.3" y1="61" y2="61" class="st7"/><rect width="69.4" height="15.1" x="25.6" y="28.9" class="st9"/><rect width="69.4" height="15.1" x="25.6" y="53.5" class="st9"/><rect width="69.4" height="15.1" x="25.6" y="78" class="st9"/><line x1="-17.9" x2="133.9" y1="48.7" y2="48.7" class="st8"/><line x1="-18.2" x2="133.7" y1="73.5" y2="73.5" class="st8"/></g><g id="icons"><g><path d="M94.8,48.2h-29c-3.3,0-5.9,2.7-5.9,5.9v4.6l-4.4,2.5l4.4,2.5v4.6c0,3.3,2.7,5.9,5.9,5.9h29 c3.3,0,5.9-2.7,5.9-5.9V54.1C100.7,50.9,98,48.2,94.8,48.2z" class="st11"/><g><g><line x1="41.4" x2="41.4" y1="27" y2="16.6" class="st18"/><line x1="41.4" x2="41.4" y1="50.1" y2="33" class="st13"/><line x1="41.4" x2="41.4" y1="88" y2="70.1" class="st13"/></g><line x1="41.4" x2="41.4" y1="104.4" y2="94" class="st18"/></g><path d="M86.2,21H64.7c-2.4,0-4.4,2-4.4,4.4v3.4L57,30.7l3.2,1.9V36c0,2.4,2,4.4,4.4,4.4h21.5c2.4,0,4.4-2,4.4-4.4 V25.4C90.6,23,88.6,21,86.2,21z" class="st10"/><path d="M86.2,80.8H64.7c-2.4,0-4.4,2-4.4,4.4v3.4L57,90.5l3.2,1.9v3.4c0,2.4,2,4.4,4.4,4.4h21.5 c2.4,0,4.4-2,4.4-4.4V85.2C90.6,82.7,88.6,80.8,86.2,80.8z" class="st10"/><circle cx="41.4" cy="30" r="3" class="st14"/><circle cx="41.4" cy="91" r="3" class="st14"/></g><g><g><ellipse cx="41.4" cy="60.3" class="st16" rx="10.4" ry="10.2"/><g><path d="M45.8,62.1c-0.9,0-2.4,0.6-3.3,1.2c0,0-0.1,0.1-1.2,0.1c-1.1,0-1.2-0.1-1.2-0.1c-0.9-0.7-2.3-1.2-3.3-1.2 c-0.9,0-1.7,0.3-1.7,0.8s0.7,1.4,1.5,2.1c0,0,1.6,1.5,4.7,1.3c3.4-0.2,4.7-1.3,4.7-1.3c0.8-0.7,1.5-1.7,1.5-2.1 S46.8,62.1,45.8,62.1z" class="st12"/></g></g><ellipse cx="41.4" cy="58.4" class="st12" rx="3.3" ry="4.1"/></g></g></svg>