<svg xmlns="http://www.w3.org/2000/svg" xmlns:xlink="http://www.w3.org/1999/xlink" x="0" y="0" version="1.1" viewBox="0 0 120 120" xml:space="preserve" style="enable-background:new 0 0 120 120"><style type="text/css">.st0{display:none}.st1{fill:#fff}.st1,.st4,.st5{display:inline}.st4{fill:#fc3}.st5{stroke:#de1f12;stroke-miterlimit:10}.st5,.st6{fill:none}.st6,.st7,.st8{display:inline;stroke:#e5e5e5;stroke-miterlimit:10}.st7{fill:none;stroke-width:.75}.st8{fill:#a7a7aa}.st12{fill:#393b42}.st13{stroke-width:.5}.st13,.st14,.st16,.st17{fill:none;stroke:#393b42;stroke-miterlimit:10}.st14{stroke-width:.75}.st16,.st17{stroke-linecap:round}.st17{stroke-width:.75}</style><g id="white_circles" class="st0"><circle cx="59.8" cy="60.1" r="60" class="st1"/></g><g id="background__x28_test_transparency_x29_" class="st0"><rect width="913.5" height="269.3" x="-721.3" y="-14.8" class="st4"/></g><g id="guides_1_" class="st0"><path d="M59.8,107.9C33.4,107.9,12,86.5,12,60.1s21.4-47.7,47.7-47.7s47.7,21.4,47.7,47.7S86.1,107.9,59.8,107.9z" class="st5"/><path d="M59.8,101.9c-23,0-41.8-18.7-41.8-41.8s18.7-41.8,41.8-41.8s41.8,18.7,41.8,41.8S82.8,101.9,59.8,101.9z" class="st5"/><path d="M59.8,95.9C40,95.9,24,79.9,24,60.1S40,24.3,59.8,24.3s35.8,16.1,35.8,35.8S79.5,95.9,59.8,95.9z" class="st5"/><line x1="58.6" x2="58.6" y1="-4.7" y2="125.7" class="st6"/><line x1="-3.6" x2="125.7" y1="60.7" y2="60.7" class="st7"/><line x1="-18.4" x2="133.5" y1="48.3" y2="48.3" class="st8"/><line x1="-18.7" x2="133.2" y1="73.2" y2="73.2" class="st8"/></g><g id="icons"><g><line x1="54.4" x2="37.4" y1="93.3" y2="93.3" class="st14"/><polyline points="92.8 93.3 93.5 93.3 88 93.3" class="st13"/><line x1="62.8" x2="81.9" y1="93.3" y2="93.3" class="st13"/><line x1="37.2" x2="54.4" y1="93.3" y2="93.3" class="st13"/><polyline points="28.1 93.3 24.8 93.3 31.2 93.3" class="st13"/><line x1="58.6" x2="58.6" y1="89.1" y2="41.8" class="st13"/><line x1="85" x2="85" y1="90.3" y2="60.5" class="st13"/><line x1="34.2" x2="34.2" y1="90.3" y2="60.5" class="st13"/><circle cx="85" cy="93.3" r="3" class="st14"/><circle cx="34.2" cy="93.3" r="3" class="st14"/><circle cx="58.6" cy="93.3" r="4.2" class="st14"/><ellipse cx="58.6" cy="26.7" class="st16" rx="15.4" ry="15.1"/><ellipse cx="34.2" cy="53.6" class="st17" rx="7" ry="6.9"/><ellipse cx="84.9" cy="53.6" class="st17" rx="7" ry="6.9"/><path d="M50.7,25.6c0,0-0.6,0.5-0.7,1.2c0,0-0.6,3.5,0,5.4c0,0,0,1,0.7,1.5c0,0,0.9,0.8,3.4,0.4c0,0,0.8-0.1,1-0.5 c0,0,2,0.5,2.7,0.6c0,0,2.3,0.5,4.2,0l0.3-0.2h2.8c0,0,0.9-0.2,1.3-0.8c0,0,0.4-1-0.3-1.4c0,0,1.2-0.6,0.4-2.1 c0,0,1.9-0.8,0.3-2.7c0,0,0.9-1.3-0.2-2.3c0,0-2.1-1.1-5.6-0.3l-0.5,0.1c0,0,0.5-0.7,0.6-2.1c0,0,2.3-6.6-2.6-6.2 c-0.3,0-0.5,0.2-0.6,0.4c-0.2,0.5-0.4,1.7-0.3,4.4c0,0-1.6,3.8-3.4,4.7C54.2,25.6,52.7,24.5,50.7,25.6z" class="st12"/></g></g></svg>